<?xml version="1.0" encoding="iso-8859-1"?>
<!-- Generator: Adobe Illustrator 19.0.0, SVG Export Plug-In . SVG Version: 6.00 Build 0)  -->
<svg version="1.1" id="Layer_1" xmlns="http://www.w3.org/2000/svg" xmlns:xlink="http://www.w3.org/1999/xlink" x="0px" y="0px"
	 viewBox="0 0 347.694 347.694" style="enable-background:new 0 0 347.694 347.694;" xml:space="preserve">
<g>
	<path style="fill:#009BDE;" d="M259.199,32.336c13.756-5.006,29.104,2.152,34.109,15.906l52.789,145.036
		c5.006,13.754-2.15,29.103-15.906,34.11L97.635,312.031c-13.754,5.006-29.104-2.152-34.109-15.907l-52.79-145.035
		c-5.006-13.753,2.152-29.103,15.906-34.11L259.199,32.336z"/>
	<path style="fill:#FF8189;" d="M133.701,78.013c13.754-5.006,29.104,2.151,34.107,15.906L220.6,238.955
		c5.006,13.755-2.15,29.104-15.906,34.11L97.635,312.031c-13.754,5.006-29.104-2.152-34.109-15.907l-52.79-145.035
		c-5.006-13.753,2.152-29.103,15.906-34.11L133.701,78.013z"/>
	<g style="opacity:0.7;">
		<circle style="fill:#E8E8E8;" cx="254.023" cy="58.852" r="3.193"/>
		<circle style="fill:#E8E8E8;" cx="273.149" cy="148.748" r="3.193"/>
		<path style="fill:#E8E8E8;" d="M325.867,198.663c-1.656,0.602-2.512,2.436-1.908,4.093s2.436,2.511,4.094,1.909
			c1.654-0.603,2.51-2.437,1.908-4.094C329.357,198.915,327.523,198.059,325.867,198.663z"/>
		<circle style="fill:#E8E8E8;" cx="285.459" cy="106.318" r="3.193"/>
		<circle style="fill:#E8E8E8;" cx="158.781" cy="262.875" r="3.194"/>
		<circle style="fill:#E8E8E8;" cx="124.827" cy="222.882" r="3.194"/>
		<circle style="fill:#E8E8E8;" cx="121.375" cy="169.438" r="3.193"/>
		<circle style="fill:#E8E8E8;" cx="85.966" cy="131.674" r="3.193"/>
		<circle style="fill:#E8E8E8;" cx="295.532" cy="185.348" r="3.194"/>
	</g>
	<path style="fill:#D16A70;" d="M35.293,113.831c13.754-5.006,29.102,2.152,34.107,15.906l52.789,145.037
		c5.006,13.753-2.15,29.103-15.904,34.109l-17.789,6.475c-13.754,5.006-29.104-2.153-34.111-15.907L1.598,154.415
		c-5.006-13.753,2.15-29.103,15.906-34.11L35.293,113.831z"/>
	<g>
		
			<rect x="166.563" y="79.157" transform="matrix(0.3421 0.9397 -0.9397 0.3421 233.6784 -86.5232)" style="fill:#FFFFFF;" width="24.131" height="88.916"/>
		
			<rect x="185.253" y="161.645" transform="matrix(0.3421 0.9397 -0.9397 0.3421 294.2239 -70.304)" style="fill:#FFFFFF;" width="24.131" height="26.634"/>
	</g>
	<g style="opacity:0.7;">
		<circle style="fill:#E8E8E8;" cx="70.88" cy="171.149" r="3.194"/>
		<circle style="fill:#E8E8E8;" cx="32.874" cy="144.201" r="3.193"/>
		<circle style="fill:#E8E8E8;" cx="95.239" cy="273.867" r="3.194"/>
		<circle style="fill:#E8E8E8;" cx="48.98" cy="232.363" r="3.193"/>
	</g>
</g>
<g>
</g>
<g>
</g>
<g>
</g>
<g>
</g>
<g>
</g>
<g>
</g>
<g>
</g>
<g>
</g>
<g>
</g>
<g>
</g>
<g>
</g>
<g>
</g>
<g>
</g>
<g>
</g>
<g>
</g>
</svg>
