<?xml version="1.0" encoding="iso-8859-1"?>
<!-- Generator: Adobe Illustrator 19.0.0, SVG Export Plug-In . SVG Version: 6.00 Build 0)  -->
<svg version="1.1" id="Layer_1" xmlns="http://www.w3.org/2000/svg" xmlns:xlink="http://www.w3.org/1999/xlink" x="0px" y="0px"
	 viewBox="0 0 512 512" style="enable-background:new 0 0 512 512;" xml:space="preserve">
<path style="fill:#92E03F;" d="M307.307,358.711H161.714l-34.634,102.926H42.542L193.42,49.947h82.775l150.871,411.69h-83.949
	L307.307,358.711z M183.438,296.96h103.318l-52.249-149.383L183.438,296.96z"/>
<path d="M427.085,472.086c-0.007,0-0.015-0.001-0.021,0h-83.949c-4.447,0-8.407-2.815-9.869-7.015l-33.369-95.91H169.222
	l-32.24,95.809c-1.43,4.252-5.417,7.117-9.904,7.117H42.542c-3.414,0-6.611-1.668-8.566-4.465c-1.955-2.798-2.419-6.375-1.244-9.579
	l150.878-411.69c1.509-4.117,5.426-6.853,9.811-6.853h82.775c4.384,0,8.303,2.737,9.811,6.853L436.644,457.41
	c0.573,1.293,0.891,2.723,0.891,4.228C437.534,467.408,432.856,472.086,427.085,472.086z M350.543,451.188h61.563L268.894,60.396
	h-68.176L57.5,451.188h62.07l32.24-95.809c1.43-4.252,5.417-7.117,9.904-7.117h145.593c4.447,0,8.407,2.815,9.869,7.015
	L350.543,451.188z M286.757,307.409H183.438c-3.373,0-6.538-1.628-8.5-4.372c-1.962-2.744-2.478-6.266-1.388-9.457l51.069-149.383
	c1.441-4.215,5.396-7.053,9.85-7.069c0.013,0,0.025,0,0.038,0c4.44,0,8.396,2.807,9.863,6.999l52.249,149.383
	c1.118,3.196,0.618,6.735-1.342,9.497C293.318,305.768,290.142,307.409,286.757,307.409z M198.052,286.511h73.979l-37.412-106.962
	L198.052,286.511z"/>
<path d="M469.458,512c-5.771,0-10.449-4.678-10.449-10.449V97.523c0-5.771,4.678-10.449,10.449-10.449
	c5.771,0,10.449,4.678,10.449,10.449v404.028C479.907,507.322,475.229,512,469.458,512z"/>
<path d="M469.458,73.906c-5.771,0-10.449-4.678-10.449-10.449V10.449C459.009,4.678,463.687,0,469.458,0
	c5.771,0,10.449,4.678,10.449,10.449v53.008C479.907,69.228,475.229,73.906,469.458,73.906z"/>
<g>
</g>
<g>
</g>
<g>
</g>
<g>
</g>
<g>
</g>
<g>
</g>
<g>
</g>
<g>
</g>
<g>
</g>
<g>
</g>
<g>
</g>
<g>
</g>
<g>
</g>
<g>
</g>
<g>
</g>
</svg>
