<?xml version="1.0" encoding="iso-8859-1"?>
<!-- Generator: Adobe Illustrator 19.0.0, SVG Export Plug-In . SVG Version: 6.00 Build 0)  -->
<svg version="1.1" id="Layer_1" xmlns="http://www.w3.org/2000/svg" xmlns:xlink="http://www.w3.org/1999/xlink" x="0px" y="0px"
	 viewBox="0 0 512 512" style="enable-background:new 0 0 512 512;" xml:space="preserve">
<g>
	<g>
		<g>
			<path d="M21.333,21.333h213.333v96c0,5.891,4.776,10.667,10.667,10.667h96v74.667h21.333v-85.333
				c-0.056-0.975-0.25-1.938-0.576-2.859c-0.06-0.399-0.142-0.794-0.245-1.184c-0.56-1.349-1.392-2.569-2.443-3.584L252.875,3.125
				C250.87,1.132,248.16,0.009,245.333,0H10.667C4.776,0,0,4.776,0,10.667v448c0,5.891,4.776,10.667,10.667,10.667H224V448H21.333
				V21.333z M256,36.427l70.219,70.24H256V36.427z"/>
			<path d="M373.333,234.667c-76.583,0-138.667,62.083-138.667,138.667S296.75,512,373.333,512S512,449.917,512,373.333
				C511.918,296.784,449.883,234.749,373.333,234.667z M373.333,490.667C308.532,490.667,256,438.135,256,373.333
				S308.532,256,373.333,256s117.333,52.532,117.333,117.333C490.596,438.106,438.106,490.596,373.333,490.667z"/>
			<path d="M438.453,308.213c-4.165-4.164-10.917-4.164-15.083,0l-50.037,50.037l-50.059-50.048
				c-4.237-4.093-10.99-3.976-15.083,0.261c-3.993,4.134-3.993,10.688,0,14.821l50.037,50.048l-50.059,50.037
				c-4.237,4.093-4.354,10.846-0.261,15.083s10.846,4.354,15.083,0.261c0.089-0.086,0.176-0.173,0.261-0.261l50.08-50.037
				l50.059,50.048c4.237,4.093,10.99,3.976,15.083-0.261c3.993-4.134,3.993-10.688,0-14.821l-50.069-50.048l50.059-50.037
				C442.625,319.128,442.62,312.376,438.453,308.213z"/>
		</g>
	</g>
</g>
<g>
</g>
<g>
</g>
<g>
</g>
<g>
</g>
<g>
</g>
<g>
</g>
<g>
</g>
<g>
</g>
<g>
</g>
<g>
</g>
<g>
</g>
<g>
</g>
<g>
</g>
<g>
</g>
<g>
</g>
</svg>
