<?xml version="1.0" encoding="iso-8859-1"?>
<!-- Generator: Adobe Illustrator 19.0.0, SVG Export Plug-In . SVG Version: 6.00 Build 0)  -->
<svg version="1.1" id="Layer_1" xmlns="http://www.w3.org/2000/svg" xmlns:xlink="http://www.w3.org/1999/xlink" x="0px" y="0px"
	 viewBox="0 0 206.166 206.166" style="enable-background:new 0 0 206.166 206.166;" xml:space="preserve">
<g>
	<g>
		<g>
			<path d="M176.009,30.157c-40.209-40.209-105.643-40.209-145.852,0c-40.209,40.211-40.209,105.639,0,145.852
				c20.105,20.105,46.516,30.157,72.926,30.157s52.822-10.052,72.926-30.157C216.218,135.797,216.218,70.368,176.009,30.157z
				 M35.766,35.766C54.324,17.207,78.706,7.93,103.083,7.93c23.145,0,46.291,8.363,64.454,25.09L33.019,167.537
				C-1.325,130.238-0.411,71.944,35.766,35.766z M170.4,170.4c-36.18,36.176-94.48,37.091-131.771,2.747L173.146,38.629
				C207.49,75.927,206.576,134.22,170.4,170.4z"/>
			<path d="M91.384,59.732H75.316V43.583c0-2.19-1.774-3.967-3.967-3.967s-3.967,1.776-3.967,3.967v16.149H51.718
				c-2.192,0-3.967,1.776-3.967,3.967c0,2.191,1.774,3.967,3.966,3.967h15.665V83.25c0,2.19,1.774,3.967,3.967,3.967
				s3.967-1.776,3.967-3.967V67.666h16.068c2.192,0,3.967-1.776,3.967-3.967C95.351,61.509,93.577,59.732,91.384,59.732z"/>
			<path d="M154.649,134.816h-39.667c-2.192,0-3.967,1.774-3.967,3.967s1.774,3.967,3.967,3.967h39.667
				c2.192,0,3.967-1.774,3.967-3.967S156.842,134.816,154.649,134.816z"/>
		</g>
	</g>
</g>
<g>
</g>
<g>
</g>
<g>
</g>
<g>
</g>
<g>
</g>
<g>
</g>
<g>
</g>
<g>
</g>
<g>
</g>
<g>
</g>
<g>
</g>
<g>
</g>
<g>
</g>
<g>
</g>
<g>
</g>
</svg>
